<svg xmlns="http://www.w3.org/2000/svg" xmlns:xlink="http://www.w3.org/1999/xlink" width="1600" zoomAndPan="magnify" viewBox="0 0 1200 675.000002" height="900" preserveAspectRatio="xMidYMid meet" version="1.0"><defs><g/><clipPath id="c57b42f434"><path d="M 0.886719 238 L 1199.113281 238 L 1199.113281 446 L 0.886719 446 Z M 0.886719 238 " clip-rule="nonzero"/></clipPath><clipPath id="e3d5d75409"><rect x="0" width="1200" y="0" height="208"/></clipPath></defs><g clip-path="url(#c57b42f434)"><g transform="matrix(1, 0, 0, 1, 0.000000000000000222, 238)"><g clip-path="url(#e3d5d75409)"><g fill="#ffffff" fill-opacity="1"><g transform="translate(0.903257, 160.556066)"><g><path d="M 145.117188 -158.621094 C 146.550781 -158.621094 148.203125 -158.152344 150.082031 -157.210938 C 152.761719 -155.871094 154.101562 -153.03125 154.101562 -148.691406 L 154.101562 -134.011719 C 154.101562 -129.417969 152.761719 -126.453125 150.082031 -125.113281 C 148.203125 -124.175781 146.550781 -123.707031 145.117188 -123.707031 L 96.742188 -123.707031 L 96.742188 -127.234375 L 100.273438 -127.234375 L 100.273438 -6.398438 C 100.273438 -2.089844 98.984375 0.742188 96.40625 2.089844 C 94.574219 3.050781 92.929688 3.527344 91.472656 3.527344 L 74.15625 3.527344 C 72.847656 3.527344 71.257812 3.058594 69.378906 2.121094 C 66.699219 0.78125 65.359375 -2.058594 65.359375 -6.398438 L 65.359375 -127.234375 L 68.886719 -127.234375 L 68.886719 -123.707031 L 20.515625 -123.707031 C 19.082031 -123.707031 17.425781 -124.175781 15.550781 -125.113281 C 12.867188 -126.453125 11.527344 -129.417969 11.527344 -134.011719 L 11.527344 -148.691406 C 11.527344 -153.03125 12.867188 -155.871094 15.550781 -157.210938 C 17.425781 -158.152344 19.082031 -158.621094 20.515625 -158.621094 Z M 145.117188 -151.5625 L 20.515625 -151.5625 C 20.191406 -151.5625 19.589844 -151.339844 18.707031 -150.898438 C 18.800781 -150.945312 18.875 -151.003906 18.929688 -151.070312 L 18.933594 -151.070312 C 18.910156 -151.03125 18.890625 -150.984375 18.867188 -150.925781 C 18.679688 -150.441406 18.585938 -149.695312 18.585938 -148.691406 L 18.585938 -134.011719 C 18.585938 -132.855469 18.6875 -131.988281 18.894531 -131.421875 C 18.9375 -131.304688 18.964844 -131.238281 18.984375 -131.214844 C 18.917969 -131.296875 18.828125 -131.367188 18.707031 -131.425781 C 19.589844 -130.984375 20.191406 -130.765625 20.515625 -130.765625 L 72.417969 -130.765625 L 72.417969 -6.398438 C 72.417969 -5.394531 72.511719 -4.648438 72.699219 -4.164062 C 72.71875 -4.105469 72.742188 -4.058594 72.761719 -4.023438 L 72.761719 -4.019531 C 72.703125 -4.089844 72.628906 -4.144531 72.535156 -4.191406 C 73.417969 -3.75 73.960938 -3.527344 74.15625 -3.527344 L 91.472656 -3.527344 C 91.773438 -3.527344 92.324219 -3.738281 93.128906 -4.160156 C 93.019531 -4.105469 92.933594 -4.035156 92.871094 -3.960938 C 92.882812 -3.972656 92.90625 -4.023438 92.9375 -4.113281 C 93.121094 -4.613281 93.214844 -5.375 93.214844 -6.398438 L 93.214844 -130.765625 L 145.117188 -130.765625 C 145.4375 -130.765625 146.042969 -130.984375 146.925781 -131.425781 C 146.804688 -131.367188 146.710938 -131.296875 146.648438 -131.214844 C 146.664062 -131.238281 146.695312 -131.304688 146.738281 -131.421875 C 146.941406 -131.988281 147.042969 -132.855469 147.042969 -134.011719 L 147.042969 -148.691406 C 147.042969 -149.695312 146.949219 -150.441406 146.765625 -150.925781 C 146.742188 -150.984375 146.71875 -151.03125 146.699219 -151.070312 C 146.757812 -151.003906 146.832031 -150.945312 146.925781 -150.898438 C 146.042969 -151.339844 145.4375 -151.5625 145.117188 -151.5625 Z M 145.117188 -151.5625 "/></g></g><g transform="translate(175.945472, 160.556066)"><g><path d="M 146.949219 -110.105469 L 146.949219 -108.976562 L 139.890625 -108.976562 L 139.890625 -110.105469 Z M 139.890625 -110.105469 L 146.949219 -110.105469 L 146.949219 -108.976562 L 139.890625 -108.976562 Z M 149.820312 -10.210938 C 151.144531 -8.445312 151.621094 -6.089844 151.253906 -3.136719 L 151.246094 -3.09375 L 151.242188 -3.050781 C 150.925781 -0.941406 150.078125 0.714844 148.703125 1.910156 C 147.316406 3.113281 145.554688 3.71875 143.421875 3.71875 L 122.71875 3.71875 C 120.300781 3.71875 118.277344 3.105469 116.648438 1.882812 L 118.765625 -0.941406 L 116.808594 1.996094 C 116.007812 1.464844 115.320312 0.730469 114.738281 -0.199219 C 114.476562 -0.617188 114.1875 -1.035156 113.871094 -1.457031 L 113.734375 -1.640625 L 79.554688 -62.261719 L 82.628906 -63.992188 L 82.628906 -60.464844 L 42.914062 -60.464844 L 42.914062 -63.992188 L 46.441406 -63.992188 L 46.441406 -6.398438 C 46.441406 -2.148438 45.191406 0.691406 42.6875 2.125 C 40.828125 3.1875 39.148438 3.71875 37.644531 3.71875 L 20.515625 3.71875 C 19.039062 3.71875 17.34375 3.199219 15.4375 2.15625 C 12.832031 0.734375 11.527344 -2.117188 11.527344 -6.398438 L 11.527344 -85.449219 C 11.527344 -89.789062 12.867188 -92.632812 15.550781 -93.972656 C 17.425781 -94.910156 19.082031 -95.378906 20.515625 -95.378906 L 102.390625 -95.378906 C 105.914062 -95.378906 108.269531 -96.246094 109.449219 -97.980469 L 109.511719 -98.066406 C 111.070312 -100.207031 111.847656 -104.035156 111.847656 -109.542969 C 111.847656 -115.050781 111.070312 -118.875 109.511719 -121.019531 L 109.449219 -121.105469 C 108.269531 -122.839844 105.914062 -123.707031 102.390625 -123.707031 L 20.515625 -123.707031 C 19.082031 -123.707031 17.425781 -124.175781 15.550781 -125.113281 C 12.867188 -126.453125 11.527344 -129.292969 11.527344 -133.632812 L 11.527344 -148.503906 C 11.527344 -152.96875 12.867188 -155.871094 15.550781 -157.210938 C 17.425781 -158.152344 19.082031 -158.621094 20.515625 -158.621094 L 107.285156 -158.621094 C 121.429688 -158.621094 131.679688 -154.105469 138.027344 -145.074219 C 143.84375 -136.6875 146.820312 -124.851562 146.949219 -109.574219 C 146.820312 -94.253906 143.847656 -82.402344 138.039062 -74.027344 L 138.015625 -73.992188 L 137.988281 -73.957031 C 132.617188 -66.609375 124.785156 -62.308594 114.484375 -61.054688 L 114.058594 -64.558594 L 117.109375 -66.335938 L 150.046875 -9.871094 L 146.996094 -8.09375 Z M 144.050781 -6.140625 L 108.308594 -67.414062 L 113.632812 -68.0625 C 121.90625 -69.066406 128.125 -72.421875 132.289062 -78.121094 L 135.140625 -76.039062 L 132.238281 -78.050781 C 137.222656 -85.234375 139.773438 -95.722656 139.890625 -109.511719 C 139.773438 -123.34375 137.226562 -133.84375 132.253906 -141.015625 C 127.308594 -148.046875 118.984375 -151.5625 107.285156 -151.5625 L 20.515625 -151.5625 C 20.191406 -151.5625 19.589844 -151.339844 18.707031 -150.898438 C 18.8125 -150.953125 18.898438 -151.015625 18.957031 -151.089844 C 18.945312 -151.074219 18.917969 -151.015625 18.882812 -150.917969 C 18.683594 -150.390625 18.585938 -149.585938 18.585938 -148.503906 L 18.585938 -133.632812 C 18.585938 -132.628906 18.679688 -131.882812 18.867188 -131.398438 C 18.890625 -131.339844 18.910156 -131.292969 18.933594 -131.257812 L 18.929688 -131.257812 C 18.875 -131.324219 18.800781 -131.378906 18.707031 -131.425781 C 19.589844 -130.984375 20.191406 -130.765625 20.515625 -130.765625 L 102.390625 -130.765625 C 108.402344 -130.765625 112.699219 -128.871094 115.28125 -125.082031 L 112.367188 -123.09375 L 115.21875 -125.171875 C 117.675781 -121.789062 118.90625 -116.582031 118.90625 -109.542969 C 118.90625 -102.503906 117.675781 -97.292969 115.21875 -93.914062 L 112.367188 -95.992188 L 115.28125 -94.003906 C 112.699219 -90.214844 108.402344 -88.320312 102.390625 -88.320312 L 20.515625 -88.320312 C 20.191406 -88.320312 19.589844 -88.101562 18.707031 -87.660156 C 18.800781 -87.707031 18.875 -87.761719 18.929688 -87.828125 L 18.933594 -87.828125 C 18.910156 -87.792969 18.890625 -87.746094 18.867188 -87.683594 C 18.679688 -87.199219 18.585938 -86.457031 18.585938 -85.449219 L 18.585938 -6.398438 C 18.585938 -5.386719 18.683594 -4.628906 18.875 -4.121094 C 18.914062 -4.015625 18.945312 -3.949219 18.972656 -3.917969 C 18.9375 -3.960938 18.882812 -4.003906 18.816406 -4.039062 C 19.671875 -3.574219 20.238281 -3.339844 20.515625 -3.339844 L 37.644531 -3.339844 C 37.898438 -3.339844 38.410156 -3.5625 39.1875 -4.003906 C 39.105469 -3.960938 39.042969 -3.910156 39.003906 -3.855469 C 39.027344 -3.886719 39.0625 -3.960938 39.101562 -4.070312 C 39.289062 -4.59375 39.382812 -5.371094 39.382812 -6.398438 L 39.382812 -67.523438 L 84.6875 -67.523438 L 119.769531 -5.308594 L 116.695312 -3.574219 L 119.519531 -5.695312 C 119.953125 -5.113281 120.355469 -4.527344 120.722656 -3.941406 C 120.765625 -3.875 120.800781 -3.824219 120.824219 -3.796875 C 120.804688 -3.816406 120.773438 -3.84375 120.722656 -3.878906 L 120.804688 -3.824219 L 120.882812 -3.765625 C 121.257812 -3.480469 121.871094 -3.339844 122.71875 -3.339844 L 143.421875 -3.339844 C 143.683594 -3.339844 143.890625 -3.363281 144.035156 -3.410156 L 144.070312 -3.417969 C 144.136719 -3.472656 144.199219 -3.703125 144.261719 -4.101562 L 147.75 -3.574219 L 144.25 -4.015625 C 144.382812 -5.078125 144.355469 -5.730469 144.175781 -5.976562 Z M 144.050781 -6.140625 "/></g></g></g><g fill="#ffffff" fill-opacity="1"><g transform="translate(348.352631, 160.556066)"><g/></g><g transform="translate(454.50726, 160.556066)"><g/></g></g><g fill="#ffffff" fill-opacity="1"><g transform="translate(560.661889, 160.556066)"><g><path d="M 147.042969 -120.898438 C 148.988281 -112.726562 149.960938 -103.167969 149.960938 -92.226562 L 149.960938 -62.675781 C 149.960938 -51.734375 148.988281 -42.175781 147.042969 -34.003906 C 146.113281 -29.886719 144.808594 -26.050781 143.132812 -22.492188 C 141.445312 -18.917969 139.511719 -15.765625 137.332031 -13.039062 C 132.804688 -7.277344 126.972656 -3.023438 119.84375 -0.28125 C 113.042969 2.382812 105.03125 3.71875 95.800781 3.71875 L 31.433594 3.71875 C 27.929688 3.71875 24.625 2.84375 21.519531 1.101562 C 18.402344 -0.648438 15.929688 -3.042969 14.101562 -6.089844 C 12.871094 -8.246094 12.03125 -10.589844 11.582031 -13.125 L 11.527344 -13.433594 L 11.71875 -142.867188 L 11.898438 -143.410156 C 12.164062 -144.210938 12.464844 -145.046875 12.796875 -145.910156 C 13.152344 -146.832031 13.542969 -147.722656 13.972656 -148.574219 L 14.039062 -148.714844 L 14.121094 -148.847656 C 17.769531 -154.773438 23.023438 -157.96875 29.878906 -158.425781 L 30.113281 -154.902344 L 26.585938 -154.902344 L 26.585938 -158.621094 L 95.800781 -158.621094 C 104.898438 -158.621094 112.910156 -157.289062 119.84375 -154.621094 C 126.824219 -151.882812 132.636719 -147.710938 137.292969 -142.097656 L 137.339844 -142.042969 L 137.382812 -141.984375 C 139.535156 -139.160156 141.449219 -136.007812 143.121094 -132.527344 C 144.808594 -129.019531 146.121094 -125.121094 147.058594 -120.835938 Z M 140.164062 -119.328125 C 139.34375 -123.074219 138.207031 -126.457031 136.757812 -129.46875 C 135.292969 -132.515625 133.628906 -135.261719 131.769531 -137.707031 L 134.574219 -139.84375 L 131.859375 -137.59375 C 127.980469 -142.269531 123.128906 -145.75 117.308594 -148.03125 C 111.191406 -150.386719 104.023438 -151.5625 95.800781 -151.5625 L 30.113281 -151.5625 L 30.113281 -155.089844 L 33.644531 -155.089844 L 33.644531 -151.601562 L 30.347656 -151.382812 C 25.914062 -151.085938 22.507812 -149.007812 20.132812 -145.148438 L 17.128906 -146.996094 L 20.285156 -145.417969 C 19.957031 -144.769531 19.660156 -144.085938 19.386719 -143.378906 C 19.09375 -142.613281 18.828125 -141.878906 18.59375 -141.175781 L 15.246094 -142.292969 L 18.773438 -142.289062 L 18.585938 -13.734375 L 15.058594 -13.738281 L 18.53125 -14.351562 C 18.839844 -12.625 19.378906 -11.078125 20.152344 -9.722656 C 21.339844 -7.746094 22.945312 -6.191406 24.972656 -5.054688 C 27.007812 -3.914062 29.160156 -3.339844 31.433594 -3.339844 L 95.800781 -3.339844 C 104.140625 -3.339844 111.308594 -4.515625 117.308594 -6.871094 C 123.230469 -9.148438 128.066406 -12.671875 131.820312 -17.449219 C 133.65625 -19.742188 135.296875 -22.429688 136.746094 -25.503906 C 138.207031 -28.59375 139.347656 -31.972656 140.175781 -35.636719 C 141.996094 -43.273438 142.902344 -52.285156 142.902344 -62.675781 L 142.902344 -92.226562 C 142.902344 -102.617188 141.996094 -111.628906 140.175781 -119.265625 Z M 46.253906 -28.796875 L 46.25 -28.765625 C 46.214844 -29.039062 46.125 -29.324219 45.976562 -29.621094 L 46.070312 -29.433594 L 42.914062 -27.855469 L 42.914062 -31.386719 L 95.238281 -31.386719 C 97.214844 -31.386719 99.066406 -31.5 100.792969 -31.730469 C 102.457031 -31.953125 103.933594 -32.277344 105.226562 -32.710938 L 106.34375 -29.363281 L 105.058594 -32.648438 C 107.339844 -33.542969 109.160156 -34.863281 110.519531 -36.609375 C 112.050781 -38.648438 113.140625 -41.40625 113.789062 -44.882812 C 114.148438 -46.898438 114.445312 -49.148438 114.6875 -51.632812 C 114.929688 -54.089844 115.046875 -56.832031 115.046875 -59.851562 L 115.046875 -95.050781 C 115.046875 -98.074219 114.925781 -100.847656 114.6875 -103.375 C 114.445312 -105.914062 114.144531 -108.207031 113.785156 -110.246094 C 113.140625 -113.667969 112.058594 -116.34375 110.535156 -118.273438 L 110.449219 -118.382812 L 110.371094 -118.5 C 109.296875 -120.113281 107.554688 -121.355469 105.148438 -122.21875 C 102.507812 -123.210938 99.203125 -123.707031 95.238281 -123.707031 L 43.101562 -123.707031 C 44.011719 -123.707031 44.789062 -124.027344 45.433594 -124.667969 C 45.777344 -125.015625 46.023438 -125.402344 46.167969 -125.835938 C 46.214844 -125.980469 46.246094 -126.101562 46.257812 -126.210938 C 46.253906 -126.199219 46.253906 -126.164062 46.253906 -126.105469 Z M 39.195312 -28.796875 L 39.195312 -126.105469 C 39.195312 -126.863281 39.289062 -127.519531 39.472656 -128.070312 C 39.679688 -128.691406 40 -129.21875 40.441406 -129.660156 C 41.175781 -130.394531 42.066406 -130.765625 43.101562 -130.765625 L 95.238281 -130.765625 C 100.054688 -130.765625 104.15625 -130.128906 107.539062 -128.863281 C 111.40625 -127.46875 114.308594 -125.320312 116.242188 -122.417969 L 113.308594 -120.460938 L 116.078125 -122.644531 C 118.316406 -119.808594 119.871094 -116.082031 120.734375 -111.472656 C 121.128906 -109.246094 121.453125 -106.769531 121.714844 -104.042969 C 121.976562 -101.296875 122.105469 -98.296875 122.105469 -95.050781 L 122.105469 -59.851562 C 122.105469 -56.601562 121.976562 -53.632812 121.714844 -50.945312 C 121.453125 -48.285156 121.125 -45.828125 120.726562 -43.582031 C 119.875 -39.027344 118.328125 -35.257812 116.09375 -32.277344 C 113.9375 -29.507812 111.117188 -27.441406 107.628906 -26.074219 L 107.542969 -26.042969 L 107.457031 -26.015625 C 105.742188 -25.441406 103.832031 -25.015625 101.726562 -24.734375 C 99.691406 -24.460938 97.527344 -24.328125 95.238281 -24.328125 L 40.730469 -24.328125 L 39.664062 -26.464844 C 39.351562 -27.089844 39.195312 -27.867188 39.195312 -28.796875 Z M 39.195312 -28.796875 "/></g></g><g transform="translate(731.56332, 160.556066)"><g><path d="M 128.175781 -37.21875 C 129.609375 -37.21875 131.265625 -36.75 133.140625 -35.8125 C 135.824219 -34.472656 137.164062 -31.632812 137.164062 -27.292969 L 137.164062 -6.585938 C 137.164062 -2.246094 135.824219 0.59375 133.140625 1.933594 C 131.265625 2.871094 129.609375 3.339844 128.175781 3.339844 L 61.359375 3.339844 C 57.050781 3.339844 53.058594 3.078125 49.378906 2.550781 C 45.59375 2.011719 42.132812 1.128906 38.992188 -0.101562 L 40.277344 -3.386719 L 39.121094 -0.0546875 C 32.304688 -2.417969 26.859375 -6.265625 22.792969 -11.597656 C 18.714844 -16.902344 15.800781 -23.511719 14.058594 -31.425781 C 13.402344 -34.703125 12.847656 -38.269531 12.398438 -42.128906 C 11.949219 -45.996094 11.65625 -50.175781 11.53125 -54.671875 L 11.527344 -54.722656 L 11.527344 -55.710938 L 11.910156 -79.929688 L 12.027344 -80.355469 C 12.484375 -82.023438 13.289062 -83.867188 14.441406 -85.882812 C 17.820312 -91.875 23.03125 -95.101562 30.074219 -95.558594 L 30.183594 -95.566406 L 127.417969 -95.753906 C 128.730469 -95.753906 130.324219 -95.285156 132.203125 -94.347656 C 134.882812 -93.007812 136.222656 -90.167969 136.222656 -85.828125 L 136.222656 -70.957031 C 136.222656 -66.675781 134.917969 -63.824219 132.3125 -62.402344 C 130.40625 -61.359375 128.777344 -60.839844 127.421875 -60.839844 L 43.289062 -60.839844 L 43.289062 -64.371094 L 46.816406 -64.210938 L 46.722656 -62.140625 C 46.660156 -60.769531 46.597656 -59.214844 46.535156 -57.46875 C 46.472656 -55.753906 46.441406 -54.226562 46.441406 -52.890625 L 46.441406 -50.820312 L 42.914062 -50.820312 L 46.335938 -51.675781 C 46.53125 -50.890625 46.632812 -50.074219 46.632812 -49.21875 C 46.632812 -48.945312 46.660156 -48.695312 46.714844 -48.476562 L 46.757812 -48.296875 L 46.785156 -48.117188 C 47.199219 -45.214844 48.035156 -42.9375 49.292969 -41.292969 C 50.371094 -39.945312 51.746094 -38.945312 53.414062 -38.296875 L 52.136719 -35.007812 L 53.066406 -38.414062 C 54.324219 -38.070312 55.671875 -37.785156 57.117188 -37.550781 C 58.5 -37.332031 60.101562 -37.21875 61.921875 -37.21875 Z M 128.175781 -30.160156 L 61.921875 -30.160156 C 59.730469 -30.160156 57.753906 -30.300781 56 -30.582031 C 54.308594 -30.851562 52.710938 -31.195312 51.207031 -31.605469 L 51.03125 -31.652344 L 50.855469 -31.71875 C 48.007812 -32.828125 45.617188 -34.589844 43.6875 -37.003906 C 41.683594 -39.625 40.386719 -43 39.796875 -47.121094 L 43.289062 -47.617188 L 39.867188 -46.761719 C 39.671875 -47.546875 39.574219 -48.363281 39.574219 -49.21875 C 39.574219 -49.492188 39.546875 -49.742188 39.488281 -49.960938 L 39.382812 -50.382812 L 39.382812 -52.890625 C 39.382812 -54.3125 39.417969 -55.921875 39.480469 -57.71875 C 39.542969 -59.488281 39.605469 -61.070312 39.671875 -62.460938 L 39.917969 -67.898438 L 127.421875 -67.898438 C 127.371094 -67.898438 127.339844 -67.898438 127.332031 -67.898438 C 127.402344 -67.910156 127.496094 -67.941406 127.613281 -67.980469 C 127.96875 -68.105469 128.410156 -68.3125 128.933594 -68.597656 C 128.867188 -68.5625 128.816406 -68.519531 128.78125 -68.476562 C 128.804688 -68.507812 128.835938 -68.574219 128.875 -68.679688 C 129.066406 -69.1875 129.164062 -69.945312 129.164062 -70.957031 L 129.164062 -85.828125 C 129.164062 -86.832031 129.070312 -87.578125 128.882812 -88.0625 C 128.859375 -88.121094 128.839844 -88.167969 128.816406 -88.203125 L 128.820312 -88.207031 C 128.875 -88.136719 128.949219 -88.082031 129.042969 -88.035156 C 128.160156 -88.476562 127.621094 -88.699219 127.429688 -88.699219 L 30.308594 -88.507812 L 30.304688 -92.039062 L 30.53125 -88.515625 C 26.03125 -88.222656 22.710938 -86.179688 20.570312 -82.382812 C 19.714844 -80.886719 19.136719 -79.589844 18.839844 -78.5 L 15.433594 -79.429688 L 18.960938 -79.371094 L 18.585938 -55.710938 L 18.585938 -54.769531 L 15.058594 -54.769531 L 18.585938 -54.871094 C 18.707031 -50.582031 18.984375 -46.609375 19.410156 -42.945312 C 19.839844 -39.277344 20.351562 -35.941406 20.949219 -32.945312 C 22.46875 -26.054688 24.953125 -20.367188 28.402344 -15.882812 C 31.613281 -11.675781 35.957031 -8.625 41.433594 -6.722656 L 41.566406 -6.675781 C 44.195312 -5.644531 47.132812 -4.898438 50.375 -4.433594 C 53.722656 -3.957031 57.386719 -3.71875 61.359375 -3.71875 L 128.175781 -3.71875 C 128.5 -3.71875 129.101562 -3.9375 129.984375 -4.378906 C 129.890625 -4.332031 129.816406 -4.277344 129.761719 -4.210938 L 129.757812 -4.210938 C 129.78125 -4.246094 129.800781 -4.292969 129.824219 -4.351562 C 130.011719 -4.839844 130.105469 -5.582031 130.105469 -6.585938 L 130.105469 -27.292969 C 130.105469 -28.296875 130.011719 -29.042969 129.824219 -29.527344 C 129.800781 -29.585938 129.78125 -29.632812 129.757812 -29.667969 L 129.761719 -29.667969 C 129.816406 -29.601562 129.890625 -29.546875 129.984375 -29.5 C 129.101562 -29.941406 128.5 -30.160156 128.175781 -30.160156 Z M 128.363281 -158.996094 C 129.71875 -158.996094 131.347656 -158.476562 133.253906 -157.4375 C 135.859375 -156.015625 137.164062 -153.164062 137.164062 -148.878906 L 137.164062 -134.011719 C 137.164062 -129.726562 135.859375 -126.875 133.253906 -125.453125 C 131.347656 -124.414062 129.71875 -123.894531 128.363281 -123.894531 L 20.132812 -124.082031 C 18.804688 -124.082031 17.226562 -124.5625 15.394531 -125.519531 C 12.816406 -126.871094 11.527344 -129.703125 11.527344 -134.011719 L 11.527344 -148.691406 C 11.527344 -153.070312 12.78125 -155.972656 15.28125 -157.402344 C 17.144531 -158.464844 18.761719 -158.996094 20.140625 -158.996094 Z M 128.363281 -151.9375 L 20.140625 -151.9375 C 20.195312 -151.9375 20.234375 -151.941406 20.25 -151.945312 C 20.1875 -151.929688 20.105469 -151.90625 20.003906 -151.867188 C 19.675781 -151.75 19.269531 -151.550781 18.785156 -151.273438 C 18.878906 -151.328125 18.949219 -151.382812 18.992188 -151.445312 C 18.964844 -151.40625 18.925781 -151.324219 18.882812 -151.195312 C 18.683594 -150.632812 18.585938 -149.796875 18.585938 -148.691406 L 18.585938 -134.011719 C 18.585938 -132.988281 18.679688 -132.226562 18.863281 -131.726562 C 18.894531 -131.636719 18.917969 -131.582031 18.929688 -131.570312 C 18.867188 -131.648438 18.78125 -131.714844 18.671875 -131.773438 C 19.476562 -131.351562 19.96875 -131.140625 20.144531 -131.140625 L 128.363281 -130.953125 C 128.3125 -130.953125 128.28125 -130.953125 128.273438 -130.949219 C 128.34375 -130.964844 128.4375 -130.992188 128.554688 -131.035156 C 128.910156 -131.160156 129.347656 -131.363281 129.875 -131.652344 C 129.808594 -131.613281 129.757812 -131.574219 129.71875 -131.53125 C 129.746094 -131.558594 129.777344 -131.628906 129.816406 -131.734375 C 130.007812 -132.238281 130.105469 -133 130.105469 -134.011719 L 130.105469 -148.878906 C 130.105469 -149.890625 130.007812 -150.652344 129.816406 -151.15625 C 129.777344 -151.261719 129.746094 -151.332031 129.71875 -151.359375 C 129.757812 -151.316406 129.808594 -151.277344 129.875 -151.238281 C 129.347656 -151.527344 128.910156 -151.730469 128.554688 -151.855469 C 128.4375 -151.898438 128.34375 -151.925781 128.273438 -151.941406 C 128.28125 -151.9375 128.3125 -151.9375 128.363281 -151.9375 Z M 128.363281 -151.9375 "/></g></g><g transform="translate(889.665967, 160.556066)"><g><path d="M 123.660156 -31.386719 C 125.160156 -31.386719 126.84375 -30.855469 128.703125 -29.792969 C 131.207031 -28.359375 132.457031 -25.519531 132.457031 -21.269531 L 132.457031 -6.398438 C 132.457031 -2.148438 131.207031 0.691406 128.703125 2.125 C 126.84375 3.1875 125.160156 3.71875 123.660156 3.71875 L 61.546875 3.71875 C 52.84375 3.71875 45.410156 2.578125 39.242188 0.300781 L 40.464844 -3.011719 L 39.328125 0.328125 C 32.761719 -1.90625 27.320312 -5.8125 22.996094 -11.390625 C 19.042969 -16.296875 16.125 -22.90625 14.25 -31.21875 C 12.433594 -39.125 11.527344 -48.355469 11.527344 -58.910156 L 11.527344 -148.503906 C 11.527344 -152.96875 12.867188 -155.871094 15.550781 -157.210938 C 17.425781 -158.152344 19.082031 -158.621094 20.515625 -158.621094 L 37.832031 -158.621094 C 39.140625 -158.621094 40.734375 -158.152344 42.609375 -157.210938 C 45.289062 -155.871094 46.632812 -152.96875 46.632812 -148.503906 L 46.632812 -55.710938 C 46.632812 -53.015625 46.691406 -50.503906 46.8125 -48.179688 C 46.929688 -45.96875 47.160156 -44.003906 47.503906 -42.289062 L 47.519531 -42.199219 L 47.535156 -42.113281 C 47.945312 -39.328125 48.785156 -37.109375 50.046875 -35.457031 L 50.148438 -35.324219 L 50.234375 -35.183594 C 51.03125 -33.914062 52.207031 -33.03125 53.761719 -32.539062 L 53.816406 -32.523438 L 53.867188 -32.503906 C 56 -31.757812 58.871094 -31.386719 62.488281 -31.386719 Z M 123.660156 -24.328125 L 62.488281 -24.328125 C 58.074219 -24.328125 54.421875 -24.832031 51.535156 -25.84375 L 52.699219 -29.171875 L 51.636719 -25.808594 C 48.425781 -26.824219 45.964844 -28.699219 44.25 -31.445312 L 47.242188 -33.316406 L 44.4375 -31.171875 C 42.4375 -33.785156 41.144531 -37.089844 40.550781 -41.078125 L 44.042969 -41.597656 L 40.582031 -40.902344 C 40.171875 -42.953125 39.898438 -45.253906 39.765625 -47.808594 C 39.636719 -50.253906 39.574219 -52.890625 39.574219 -55.710938 L 39.574219 -148.503906 C 39.574219 -149.585938 39.472656 -150.390625 39.277344 -150.917969 C 39.242188 -151.015625 39.214844 -151.074219 39.203125 -151.089844 C 39.261719 -151.015625 39.347656 -150.953125 39.453125 -150.898438 C 38.570312 -151.339844 38.027344 -151.5625 37.832031 -151.5625 L 20.515625 -151.5625 C 20.191406 -151.5625 19.589844 -151.339844 18.707031 -150.898438 C 18.8125 -150.953125 18.898438 -151.015625 18.957031 -151.089844 C 18.945312 -151.074219 18.917969 -151.015625 18.882812 -150.917969 C 18.683594 -150.390625 18.585938 -149.585938 18.585938 -148.503906 L 18.585938 -58.910156 C 18.585938 -48.890625 19.4375 -40.175781 21.136719 -32.773438 C 22.769531 -25.527344 25.25 -19.839844 28.574219 -15.714844 C 32.03125 -11.253906 36.375 -8.132812 41.605469 -6.351562 L 41.691406 -6.320312 C 47.066406 -4.335938 53.6875 -3.339844 61.546875 -3.339844 L 123.660156 -3.339844 C 123.914062 -3.339844 124.425781 -3.5625 125.203125 -4.003906 C 125.121094 -3.960938 125.058594 -3.910156 125.019531 -3.855469 C 125.042969 -3.886719 125.074219 -3.960938 125.117188 -4.070312 C 125.304688 -4.59375 125.398438 -5.371094 125.398438 -6.398438 L 125.398438 -21.269531 C 125.398438 -22.296875 125.304688 -23.074219 125.117188 -23.597656 C 125.074219 -23.707031 125.042969 -23.78125 125.019531 -23.8125 C 125.058594 -23.757812 125.121094 -23.707031 125.203125 -23.664062 C 124.425781 -24.105469 123.914062 -24.328125 123.660156 -24.328125 Z M 123.660156 -24.328125 "/></g></g></g><g fill="#ffffff" fill-opacity="1"><g transform="translate(1016.712713, 160.556066)"><g><path d="M 154.339844 -158.621094 C 155.914062 -158.621094 157.292969 -158.195312 158.476562 -157.339844 C 159.605469 -156.523438 160.457031 -155.378906 161.019531 -153.910156 L 161.097656 -153.710938 L 161.148438 -153.5 C 161.75 -151.105469 161.453125 -148.8125 160.261719 -146.625 L 103.203125 -45.878906 L 100.132812 -47.617188 L 103.660156 -47.617188 L 103.660156 -6.398438 C 103.660156 -2.058594 102.320312 0.78125 99.640625 2.121094 C 97.761719 3.058594 96.167969 3.527344 94.863281 3.527344 L 77.546875 3.527344 C 76.238281 3.527344 74.644531 3.058594 72.765625 2.121094 C 70.085938 0.78125 68.746094 -2.058594 68.746094 -6.398438 L 68.746094 -47.617188 L 72.277344 -47.617188 L 69.195312 -45.894531 L 12.730469 -146.589844 C 11.511719 -148.824219 11.214844 -151.089844 11.839844 -153.382812 L 15.246094 -152.457031 L 11.792969 -153.195312 C 12.164062 -154.910156 12.96875 -156.253906 14.207031 -157.21875 C 15.410156 -158.152344 16.886719 -158.621094 18.632812 -158.621094 L 40.089844 -158.621094 C 41.460938 -158.621094 42.875 -158.300781 44.328125 -157.664062 C 46.113281 -156.886719 47.570312 -155.359375 48.707031 -153.09375 L 45.546875 -151.515625 L 48.648438 -153.203125 L 89.679688 -77.917969 L 86.578125 -76.226562 L 83.484375 -77.925781 L 124.894531 -153.402344 C 126.027344 -155.484375 127.46875 -156.902344 129.207031 -157.664062 C 130.664062 -158.300781 132.074219 -158.621094 133.445312 -158.621094 Z M 154.339844 -151.5625 L 133.445312 -151.5625 C 133.058594 -151.5625 132.589844 -151.441406 132.039062 -151.199219 C 131.769531 -151.082031 131.453125 -150.683594 131.082031 -150.003906 L 86.570312 -68.871094 L 42.417969 -149.882812 L 42.390625 -149.9375 C 42.019531 -150.679688 41.722656 -151.101562 41.5 -151.199219 C 40.945312 -151.441406 40.476562 -151.5625 40.089844 -151.5625 L 18.632812 -151.5625 C 18.5 -151.5625 18.40625 -151.554688 18.351562 -151.539062 C 18.40625 -151.554688 18.46875 -151.589844 18.542969 -151.648438 C 18.625 -151.710938 18.691406 -151.785156 18.734375 -151.859375 C 18.726562 -151.847656 18.714844 -151.796875 18.695312 -151.714844 L 18.675781 -151.621094 L 18.652344 -151.527344 C 18.523438 -151.0625 18.601562 -150.566406 18.886719 -150.042969 L 75.804688 -48.539062 L 75.804688 -6.398438 C 75.804688 -5.394531 75.898438 -4.648438 76.085938 -4.164062 C 76.109375 -4.105469 76.128906 -4.058594 76.152344 -4.023438 L 76.148438 -4.019531 C 76.09375 -4.089844 76.019531 -4.144531 75.925781 -4.191406 C 76.808594 -3.75 77.347656 -3.527344 77.546875 -3.527344 L 94.863281 -3.527344 C 95.058594 -3.527344 95.597656 -3.75 96.484375 -4.191406 C 96.390625 -4.144531 96.3125 -4.089844 96.257812 -4.019531 L 96.257812 -4.023438 C 96.277344 -4.058594 96.296875 -4.105469 96.320312 -4.164062 C 96.507812 -4.648438 96.601562 -5.394531 96.601562 -6.398438 L 96.601562 -48.550781 L 154.0625 -150.003906 C 154.375 -150.578125 154.457031 -151.171875 154.300781 -151.789062 L 157.726562 -152.644531 L 154.433594 -151.378906 C 154.382812 -151.503906 154.339844 -151.597656 154.292969 -151.65625 C 154.296875 -151.652344 154.3125 -151.636719 154.34375 -151.617188 C 154.386719 -151.585938 154.425781 -151.566406 154.46875 -151.554688 C 154.449219 -151.558594 154.40625 -151.5625 154.339844 -151.5625 Z M 154.339844 -151.5625 "/></g></g></g></g></g></g><g fill="#7ed957" fill-opacity="1"><g transform="translate(363.136089, 398.810366)"><g><path d="M 184.90625 -8.101562 C 185.578125 -6.085938 185.820312 -4.308594 185.625 -2.769531 L 185.238281 0.332031 L 167.015625 0.332031 L 167.015625 -3.207031 L 170.554688 -3.207031 L 170.554688 -2.207031 L 170.449219 -1.785156 C 170.195312 -0.769531 169.617188 0.289062 168.71875 1.390625 C 167.445312 2.949219 165.492188 3.726562 162.867188 3.726562 L 142.671875 3.726562 C 139.144531 3.726562 136.417969 1.988281 134.484375 -1.488281 L 131.5625 -6.746094 L 152.675781 -6.746094 L 152.675781 -3.207031 L 149.511719 -1.625 L 149.050781 -2.546875 L 147.851562 -5.738281 L 151.164062 -6.984375 L 151.164062 -3.445312 L 134.042969 -3.445312 L 126.515625 -22.410156 L 142.671875 -22.410156 L 142.671875 -18.871094 L 139.394531 -17.539062 L 129.203125 -42.640625 L 132.480469 -43.972656 L 132.480469 -40.433594 L 115.171875 -40.433594 L 107.644531 -59.398438 L 122.855469 -59.398438 L 122.855469 -55.859375 L 119.566406 -54.558594 L 105.757812 -89.40625 L 119.648438 -89.40625 L 119.648438 -85.867188 L 116.34375 -84.609375 L 114.832031 -88.570312 L 118.140625 -89.832031 L 118.140625 -86.292969 L 101.792969 -86.292969 L 91.179688 -112.429688 L 105.683594 -112.429688 L 105.683594 -108.890625 L 102.394531 -107.585938 L 97.675781 -119.476562 L 100.964844 -120.78125 L 100.964844 -117.242188 L 99.832031 -117.242188 L 99.832031 -120.78125 L 102.335938 -118.277344 L 102.144531 -118.089844 L 99.644531 -120.59375 L 102.945312 -119.316406 L 97.539062 -105.351562 L 85.867188 -105.351562 L 85.867188 -108.890625 L 89.15625 -107.589844 L 81.609375 -88.527344 L 78.320312 -89.832031 L 78.320312 -93.371094 L 97.652344 -93.371094 L 92.917969 -82.328125 L 81.90625 -82.328125 L 81.90625 -85.867188 L 85.199219 -84.574219 L 78.96875 -68.722656 L 75.675781 -70.015625 L 75.675781 -73.554688 L 97.332031 -73.554688 L 97.332031 -64.402344 L 74.921875 -64.402344 L 74.921875 -67.9375 L 78.207031 -66.625 L 74.808594 -58.132812 L 71.523438 -59.445312 L 71.523438 -62.984375 L 94.738281 -62.984375 C 96.699219 -62.984375 98.429688 -62.492188 99.933594 -61.511719 C 101.398438 -60.550781 102.558594 -59.171875 103.410156 -57.375 L 105.800781 -52.324219 L 90.207031 -52.324219 L 90.207031 -55.859375 L 93.746094 -55.859375 L 93.746094 -55.671875 L 90.207031 -55.671875 L 93.488281 -56.996094 L 98.207031 -45.296875 L 94.925781 -43.972656 L 94.925781 -47.511719 L 112.214844 -47.511719 L 115.253906 -40.046875 L 115.304688 -39.875 C 116.269531 -36.601562 115.828125 -33.738281 113.988281 -31.28125 L 111.15625 -33.402344 L 114.230469 -31.648438 C 112.542969 -28.699219 109.882812 -27.222656 106.25 -27.222656 L 64.917969 -27.222656 L 64.917969 -30.761719 L 68.207031 -29.457031 L 62.605469 -15.332031 L 49.257812 -15.332031 L 49.257812 -18.871094 L 52.546875 -17.566406 L 47.828125 -5.675781 L 44.539062 -6.984375 L 44.539062 -10.519531 L 64.542969 -10.519531 L 61.210938 -2.425781 L 57.9375 -3.773438 L 61.476562 -3.773438 C 61.476562 -2.671875 61.003906 -1.648438 60.0625 -0.707031 L 59.027344 0.332031 L 42.460938 0.332031 L 42.460938 -3.207031 L 45.695312 -1.769531 C 44.921875 -0.0351562 43.855469 1.304688 42.496094 2.25 C 41.070312 3.234375 39.425781 3.726562 37.554688 3.726562 L 16.796875 3.726562 C 14.167969 3.726562 12.21875 2.949219 10.945312 1.390625 C 10.042969 0.289062 9.464844 -0.769531 9.210938 -1.785156 L 9.105469 -2.207031 L 9.105469 -2.640625 C 9.105469 -1.917969 9.386719 -1.269531 9.953125 -0.707031 L 3.914062 -6.746094 L 27.554688 -6.746094 L 27.554688 -3.207031 L 24.042969 -2.769531 C 23.851562 -4.308594 24.089844 -6.085938 24.761719 -8.101562 L 28.121094 -6.984375 L 28.121094 -3.445312 L 9.859375 -3.445312 L 9.859375 -6.984375 C 9.859375 -7.601562 9.992188 -8.175781 10.257812 -8.707031 C 10.546875 -9.28125 10.957031 -9.75 11.488281 -10.105469 C 12.09375 -10.507812 12.761719 -10.710938 13.492188 -10.710938 L 13.585938 -10.710938 L 13.585938 -7.171875 L 10.289062 -8.449219 L 15.691406 -22.410156 L 29.0625 -22.410156 L 29.0625 -18.871094 L 25.785156 -20.203125 L 35.976562 -45.304688 L 39.253906 -43.972656 L 39.253906 -40.433594 L 19.132812 -40.433594 L 26.660156 -59.398438 L 39.066406 -59.398438 L 39.066406 -55.859375 L 35.78125 -57.183594 L 48.753906 -89.40625 L 60.011719 -89.40625 L 60.011719 -85.867188 L 56.707031 -87.128906 L 58.214844 -91.089844 L 61.523438 -89.832031 L 61.523438 -86.292969 L 42.300781 -86.292969 L 52.914062 -112.429688 L 64.542969 -112.429688 L 64.542969 -108.890625 L 61.253906 -110.195312 L 65.972656 -122.085938 L 69.261719 -120.78125 L 69.261719 -117.242188 L 50.035156 -117.242188 L 59 -139.289062 L 62.277344 -137.953125 L 58.738281 -137.953125 C 58.738281 -138.636719 58.894531 -139.289062 59.207031 -139.914062 C 59.019531 -139.542969 58.929688 -139.140625 58.929688 -138.710938 L 62.464844 -138.710938 L 62.464844 -135.171875 L 49.3125 -135.171875 L 51.253906 -140.023438 C 51.527344 -140.703125 51.832031 -141.414062 52.167969 -142.15625 C 52.460938 -142.796875 52.722656 -143.410156 52.953125 -143.988281 L 53.84375 -146.210938 L 79.828125 -146.210938 L 79.828125 -142.671875 L 76.628906 -144.179688 C 77.707031 -146.476562 78.800781 -148.453125 79.902344 -150.109375 C 81.121094 -151.9375 82.449219 -153.410156 83.882812 -154.523438 L 83.984375 -154.605469 L 84.09375 -154.675781 C 84.351562 -154.847656 84.648438 -155.078125 84.980469 -155.363281 C 85.640625 -155.929688 86.351562 -156.402344 87.117188 -156.785156 L 87.871094 -157.160156 C 87.78125 -157.117188 87.664062 -157.019531 87.515625 -156.875 L 90.019531 -154.375 L 90.019531 -150.835938 L 71.902344 -150.835938 L 82.710938 -157.398438 C 86.796875 -159.878906 91.308594 -161.121094 96.246094 -161.121094 C 101.183594 -161.121094 105.699219 -159.878906 109.785156 -157.398438 L 107.949219 -154.375 L 107.949219 -157.910156 L 114.558594 -157.910156 L 115.382812 -157.4375 C 120.894531 -154.246094 124.742188 -149.738281 126.925781 -143.914062 L 128.71875 -139.132812 L 100.023438 -139.132812 L 100.023438 -142.671875 L 103.378906 -143.792969 C 103.484375 -143.480469 103.585938 -143.199219 103.683594 -142.949219 C 103.773438 -142.726562 103.859375 -142.53125 103.941406 -142.367188 L 104.054688 -142.144531 L 104.132812 -141.90625 C 104.207031 -141.6875 104.457031 -141.148438 104.886719 -140.292969 L 101.71875 -138.710938 L 101.71875 -142.246094 L 113.375 -142.246094 L 113.375 -138.710938 C 113.375 -139.140625 113.28125 -139.542969 113.09375 -139.914062 C 113.40625 -139.289062 113.5625 -138.636719 113.5625 -137.953125 L 110.023438 -137.953125 L 113.300781 -139.289062 L 120.285156 -122.113281 L 117.007812 -120.78125 L 117.007812 -124.320312 L 133.339844 -124.320312 L 141.167969 -105.351562 L 126.632812 -105.351562 L 126.632812 -108.890625 L 129.910156 -110.222656 L 137.648438 -91.160156 L 134.367188 -89.832031 L 134.367188 -93.371094 L 150.773438 -93.371094 L 154.980469 -82.328125 L 141.164062 -82.328125 L 141.164062 -85.867188 L 144.445312 -87.1875 L 158.480469 -52.324219 L 143.238281 -52.324219 L 143.238281 -55.859375 L 146.527344 -57.167969 L 151.246094 -45.277344 L 147.957031 -43.972656 L 147.957031 -47.511719 L 165.25 -47.511719 L 178.3125 -15.332031 L 162.300781 -15.332031 L 162.300781 -18.871094 L 165.582031 -20.195312 L 170.554688 -7.859375 L 170.554688 -6.984375 L 167.015625 -6.984375 L 167.015625 -10.519531 L 184.097656 -10.519531 Z M 178.191406 -5.863281 L 181.550781 -6.984375 L 181.550781 -3.445312 L 163.480469 -3.445312 L 163.480469 -7.171875 L 167.015625 -7.171875 L 163.734375 -5.847656 L 157.058594 -22.410156 L 173.054688 -22.410156 L 173.054688 -18.871094 L 169.777344 -17.539062 L 159.585938 -42.640625 L 162.867188 -43.972656 L 162.867188 -40.433594 L 145.554688 -40.433594 L 138.027344 -59.398438 L 153.242188 -59.398438 L 153.242188 -55.859375 L 149.957031 -54.539062 L 135.925781 -89.40625 L 149.84375 -89.40625 L 149.84375 -85.867188 L 146.539062 -84.609375 L 145.027344 -88.570312 L 148.335938 -89.832031 L 148.335938 -86.292969 L 131.988281 -86.292969 L 121.375 -112.429688 L 135.878906 -112.429688 L 135.878906 -108.890625 L 132.609375 -107.542969 L 127.699219 -119.429688 L 130.972656 -120.78125 L 130.972656 -117.242188 L 114.625 -117.242188 L 106.484375 -137.261719 L 106.484375 -137.953125 C 106.484375 -137.523438 106.578125 -137.121094 106.765625 -136.75 C 106.453125 -137.375 106.296875 -138.027344 106.296875 -138.710938 L 109.835938 -138.710938 L 109.835938 -135.171875 L 99.535156 -135.171875 L 98.554688 -137.128906 C 97.976562 -138.285156 97.597656 -139.128906 97.417969 -139.667969 L 100.777344 -140.785156 L 97.613281 -139.203125 C 97.441406 -139.542969 97.277344 -139.914062 97.113281 -140.320312 C 96.960938 -140.699219 96.8125 -141.109375 96.664062 -141.554688 L 95.113281 -146.210938 L 123.613281 -146.210938 L 123.613281 -142.671875 L 120.296875 -141.429688 C 118.707031 -145.671875 115.886719 -148.964844 111.835938 -151.3125 L 113.609375 -154.375 L 113.609375 -150.835938 L 106.957031 -150.835938 L 106.113281 -151.347656 C 103.152344 -153.144531 99.863281 -154.042969 96.246094 -154.042969 C 92.628906 -154.042969 89.339844 -153.144531 86.382812 -151.347656 L 84.546875 -154.375 L 84.546875 -157.910156 L 98.5625 -157.910156 L 92.523438 -151.871094 C 92.125 -151.476562 91.628906 -151.128906 91.035156 -150.832031 L 90.28125 -150.453125 C 90.039062 -150.332031 89.804688 -150.175781 89.585938 -149.988281 C 89.039062 -149.519531 88.515625 -149.117188 88.019531 -148.785156 L 86.054688 -151.730469 L 88.230469 -148.9375 C 87.398438 -148.292969 86.585938 -147.375 85.792969 -146.183594 C 84.882812 -144.820312 83.960938 -143.144531 83.03125 -141.164062 L 82.074219 -139.132812 L 56.238281 -139.132812 L 56.238281 -142.671875 L 59.523438 -141.359375 C 59.253906 -140.679688 58.949219 -139.96875 58.609375 -139.226562 C 58.320312 -138.585938 58.058594 -137.972656 57.824219 -137.394531 L 54.539062 -138.710938 L 54.539062 -142.246094 L 66.003906 -142.246094 L 66.003906 -138.710938 C 66.003906 -138.027344 65.847656 -137.375 65.535156 -136.75 C 65.722656 -137.121094 65.816406 -137.523438 65.816406 -137.953125 L 65.816406 -137.261719 L 58.574219 -119.449219 L 55.296875 -120.78125 L 55.296875 -124.320312 L 74.472656 -124.320312 L 66.945312 -105.351562 L 55.296875 -105.351562 L 55.296875 -108.890625 L 58.574219 -107.5625 L 50.835938 -88.5 L 47.558594 -89.832031 L 47.558594 -93.371094 L 66.65625 -93.371094 L 62.453125 -82.328125 L 51.144531 -82.328125 L 51.144531 -85.867188 L 54.425781 -84.546875 L 41.457031 -52.324219 L 29.0625 -52.324219 L 29.0625 -55.859375 L 32.351562 -54.554688 L 27.632812 -42.667969 L 24.34375 -43.972656 L 24.34375 -47.511719 L 44.507812 -47.511719 L 31.445312 -15.332031 L 18.117188 -15.332031 L 18.117188 -18.871094 L 21.417969 -17.59375 L 16.011719 -3.632812 L 13.492188 -3.632812 C 14.191406 -3.632812 14.832031 -3.828125 15.414062 -4.214844 C 15.925781 -4.554688 16.316406 -4.996094 16.585938 -5.542969 C 16.820312 -6.007812 16.9375 -6.488281 16.9375 -6.984375 L 13.398438 -6.984375 L 13.398438 -10.519531 L 33.027344 -10.519531 L 31.476562 -5.863281 C 31.140625 -4.863281 31.003906 -4.121094 31.0625 -3.648438 L 31.5625 0.332031 L 12.457031 0.332031 L 12.457031 -3.207031 L 14.957031 -5.710938 C 15.773438 -4.894531 16.183594 -3.871094 16.183594 -2.640625 L 12.644531 -2.640625 L 16.078125 -3.5 C 16.0625 -3.558594 16.046875 -3.605469 16.03125 -3.640625 C 16.035156 -3.632812 16.042969 -3.617188 16.058594 -3.589844 C 16.136719 -3.457031 16.257812 -3.289062 16.421875 -3.089844 C 16.273438 -3.273438 16.132812 -3.386719 16.003906 -3.425781 C 16.160156 -3.375 16.425781 -3.351562 16.796875 -3.351562 L 37.554688 -3.351562 C 37.949219 -3.351562 38.253906 -3.421875 38.464844 -3.570312 C 38.738281 -3.757812 38.992188 -4.117188 39.230469 -4.644531 L 40.164062 -6.746094 L 57.558594 -6.746094 L 57.558594 -3.207031 L 55.058594 -5.710938 C 55.019531 -5.671875 54.964844 -5.601562 54.898438 -5.5 C 54.566406 -5 54.398438 -4.425781 54.398438 -3.773438 L 54.398438 -4.472656 L 55.984375 -8.328125 L 59.257812 -6.984375 L 59.257812 -3.445312 L 39.328125 -3.445312 L 46.851562 -22.410156 L 60.203125 -22.410156 L 60.203125 -18.871094 L 56.914062 -20.175781 L 62.515625 -34.300781 L 106.25 -34.300781 C 107.144531 -34.300781 107.757812 -34.585938 108.085938 -35.160156 L 108.191406 -35.351562 L 108.324219 -35.527344 C 108.75 -36.089844 108.8125 -36.875 108.515625 -37.878906 L 111.910156 -38.875 L 108.632812 -37.542969 L 106.558594 -42.636719 L 109.835938 -43.972656 L 109.835938 -40.433594 L 92.539062 -40.433594 L 86.667969 -54.984375 L 86.667969 -59.398438 L 100.210938 -59.398438 L 100.210938 -55.859375 L 97.011719 -54.347656 C 96.730469 -54.941406 96.410156 -55.355469 96.054688 -55.589844 C 95.730469 -55.800781 95.292969 -55.910156 94.738281 -55.910156 L 66.296875 -55.910156 L 72.527344 -71.476562 L 93.792969 -71.476562 L 93.792969 -67.9375 L 90.253906 -67.9375 L 90.253906 -70.015625 L 93.792969 -70.015625 L 93.792969 -66.476562 L 70.484375 -66.476562 L 79.492188 -89.40625 L 90.585938 -89.40625 L 90.585938 -85.867188 L 87.332031 -87.261719 L 89.03125 -91.226562 L 92.285156 -89.832031 L 92.285156 -86.292969 L 73.113281 -86.292969 L 83.464844 -112.429688 L 95.113281 -112.429688 L 95.113281 -108.890625 L 91.816406 -110.167969 L 96.613281 -122.566406 L 98.367188 -124.320312 L 103.367188 -124.320312 L 110.894531 -105.351562 L 96.4375 -105.351562 L 96.4375 -108.890625 L 99.714844 -110.222656 L 107.453125 -91.160156 L 104.171875 -89.832031 L 104.171875 -93.371094 L 120.578125 -93.371094 L 124.785156 -82.328125 L 110.96875 -82.328125 L 110.96875 -85.867188 L 114.257812 -87.171875 L 128.066406 -52.324219 L 112.855469 -52.324219 L 112.855469 -55.859375 L 116.144531 -57.167969 L 120.863281 -45.277344 L 117.574219 -43.972656 L 117.574219 -47.511719 L 134.863281 -47.511719 L 147.929688 -15.332031 L 131.726562 -15.332031 L 131.726562 -18.871094 L 135.015625 -20.175781 L 139.734375 -8.289062 L 136.445312 -6.984375 L 136.445312 -10.519531 L 153.617188 -10.519531 L 155.609375 -5.207031 L 152.296875 -3.964844 L 155.460938 -5.546875 L 158.398438 0.332031 L 137.578125 0.332031 L 137.578125 -3.207031 L 140.671875 -4.925781 C 141.253906 -3.875 141.921875 -3.351562 142.671875 -3.351562 L 162.867188 -3.351562 C 163.238281 -3.351562 163.5 -3.375 163.65625 -3.425781 C 163.527344 -3.386719 163.390625 -3.273438 163.242188 -3.089844 C 163.402344 -3.289062 163.523438 -3.457031 163.601562 -3.589844 C 163.617188 -3.617188 163.625 -3.632812 163.628906 -3.640625 C 163.613281 -3.605469 163.597656 -3.558594 163.585938 -3.5 L 167.015625 -2.640625 L 163.480469 -2.640625 L 163.480469 -6.746094 L 182.113281 -6.746094 L 182.113281 -3.207031 L 178.605469 -3.648438 C 178.664062 -4.121094 178.527344 -4.863281 178.191406 -5.863281 Z M 89.785156 -23.777344 L 89.785156 -21.890625 L 86.246094 -21.890625 L 86.246094 -25.429688 L 117.949219 -25.429688 L 117.949219 -21.890625 L 114.410156 -21.890625 L 114.410156 -23.777344 L 117.949219 -23.777344 L 117.949219 -20.242188 L 86.246094 -20.242188 L 86.246094 -23.777344 Z M 82.707031 -27.316406 L 121.488281 -27.316406 L 121.488281 -18.351562 L 82.707031 -18.351562 Z M 56.945312 -13.398438 L 56.945312 -11.324219 L 53.40625 -11.324219 L 53.40625 -14.863281 L 74.167969 -14.863281 L 74.167969 -11.324219 L 70.628906 -11.324219 L 70.628906 -13.398438 L 74.167969 -13.398438 L 74.167969 -9.859375 L 53.40625 -9.859375 L 53.40625 -13.398438 Z M 49.871094 -16.9375 L 77.707031 -16.9375 L 77.707031 -7.785156 L 49.871094 -7.785156 Z M 49.871094 -16.9375 "/></g></g></g></svg>